# xmcd CD database file
#
# Track frame offsets:
#	150
#	12000
#	22775
#	36837
#	48850
#	60450
#	73237
#	84912
#	97525
#	110037
#	121512
#	133087
#	143987
#	156312
#	166937
#	178675
#	190300
#	203937
#	216750
#	225512
#	235162
#	245350
#	257587
#	271475
#	282262
#
# Disc length: 3936 seconds
#
# Revision: 1
# Processed by: cddbd v1.5.2PL0 Copyright (c) Steve Scherf et al.
# Submitted via: CDex 1.51
#
DISCID=500f5e19
DTITLE=Roy Milton and His Solid Senders - Groovy Blues (Specialty, Vol 2)
DYEAR=1947
DGENRE=R&B-Jump/Swing
TTITLE0=Groovy Blue
TTITLE1=Rhythm Cocktail
TTITLE2=On The Sunny Side Of The Street
TTITLE3=Little Boy Blue
TTITLE4=Pack Your Sack, Jack
TTITLE5=Roy Rides Aka Nip Time
TTITLE6=Cryin' And Singin' The Blues
TTITLE7=Unidentified Shuffle Blues (#1)
TTITLE8=I Want A Little Girl
TTITLE9=My Blue Heaven
TTITLE10='tain't Me
TTITLE11=Junior Jumps
TTITLE12=Sympathetic Blues
TTITLE13=Oh Marie
TTITLE14=Waking Up Baby
TTITLE15=Playboy Blues
TTITLE16=Bye Bye Baby Blues
TTITLE17=Don't You Remember, Baby?
TTITLE18=One O"Clock Jump
TTITLE19=Marie
TTITLE20=Unidentified Novelty Song (#1)
TTITLE21=That's The One For Me
TTITLE22=Cold Blooded Woman
TTITLE23=Short, Sweet And Snappy
TTITLE24=I Stood By
EXTD=YEAR: 1947
EXTT0=
EXTT1=
EXTT2=
EXTT3=
EXTT4=
EXTT5=
EXTT6=
EXTT7=
EXTT8=
EXTT9=
EXTT10=
EXTT11=
EXTT12=
EXTT13=
EXTT14=
EXTT15=
EXTT16=
EXTT17=
EXTT18=
EXTT19=
EXTT20=
EXTT21=
EXTT22=
EXTT23=
EXTT24=
PLAYORDER=
